<svg xmlns="http://www.w3.org/2000/svg" viewBox="0 0 512 512" role="img" aria-label="twbus">
  <title>twbus</title>
  <desc>Terminal window with a prompt chevron and the letter B — twbus CLI for real-time Taiwan bus arrivals.</desc>

  <rect width="512" height="512" rx="96" fill="#020617"/>
  <rect x="32" y="32" width="448" height="448" rx="32" fill="#0F172A"/>

  <circle cx="72" cy="80" r="12" fill="#FF5F57"/>
  <circle cx="112" cy="80" r="12" fill="#FEBC2E"/>
  <circle cx="152" cy="80" r="12" fill="#28C840"/>
  <line x1="32" y1="128" x2="480" y2="128" stroke="#1E293B" stroke-width="2"/>

  <path d="M 142 232 L 210 304 L 142 376"
        fill="none" stroke="#22D3A0" stroke-width="32"
        stroke-linecap="round" stroke-linejoin="round"/>

  <path transform="translate(256 184)"
        fill="#22D3A0" fill-rule="evenodd"
        d="M 0 0 L 70 0
           A 60 60 0 0 1 70 120
           A 60 60 0 0 1 70 240
           L 0 240 Z
           M 70 25 A 35 35 0 0 1 70 95 Z
           M 70 145 A 35 35 0 0 1 70 215 Z"/>
</svg>
